<svg xmlns="http://www.w3.org/2000/svg" viewBox="0 0 56.5 99.76"><defs><style>.cls-1{fill:#fff;}</style></defs><g id="Layer_2" data-name="Layer 2"><g id="Layer_1-2" data-name="Layer 1"><path class="cls-1" d="M50,74.11c-3-2.88-6.29-5.5-8.11-9.3-4.61-9.6,7.2-15.91,10.31-23.69,1.56-3.88,1.71-8.71-.52-12.38-2.61-4.31-6.26-5-10.94-5.62a38.31,38.31,0,0,0-9.51,0c-9.81,1.27-20.16,7-22.38,17.34-1.38,6.43,1.22,11.88,4,17.49,2.4,4.91,5.31,9.56,7.63,14.52a101.65,101.65,0,0,1,4.88,14.13c1.21,4.07,2.68,7.57,6.24,10.18a16.08,16.08,0,0,0,7.72,2.89,20.46,20.46,0,0,0,6.89-.45c3.56-.85,7-2.77,8.86-5.92a11.92,11.92,0,0,0,1.36-7.46C55.81,81.18,53.3,77.31,50,74.11Z"/><path class="cls-1" d="M40.06,16.12a7.58,7.58,0,0,0,5,3.77,7.06,7.06,0,0,0,7.07-3.51c1.86-3.21,1-7.89-.18-11.22A8,8,0,0,0,48.44.75a6.71,6.71,0,0,0-9.07,3,14.65,14.65,0,0,0-.53,9.45A11.46,11.46,0,0,0,40.06,16.12Z"/><path class="cls-1" d="M26.65,15.12A4.93,4.93,0,0,0,30,17.45,4.58,4.58,0,0,0,34.48,15c1.13-2.13.46-5.16-.4-7.29A5.26,5.26,0,0,0,31.71,4.9a4.37,4.37,0,0,0-5.83,2.21,9.58,9.58,0,0,0-.1,6.17A7.2,7.2,0,0,0,26.65,15.12Z"/><path class="cls-1" d="M15.72,20a4.52,4.52,0,0,0,3.21,1.92,4.21,4.21,0,0,0,4-2.55c.91-2,.09-4.78-.84-6.68a4.8,4.8,0,0,0-2.35-2.41,4,4,0,0,0-5.22,2.4,8.79,8.79,0,0,0,.3,5.68A7,7,0,0,0,15.72,20Z"/><path class="cls-1" d="M13.42,26.29c.65-1.9-.28-4.31-1.26-5.95a4.37,4.37,0,0,0-2.31-2,3.64,3.64,0,0,0-4.51,2.56A7.92,7.92,0,0,0,6.05,26,5.73,5.73,0,0,0,7,27.4a4.09,4.09,0,0,0,3,1.49A3.84,3.84,0,0,0,13.42,26.29Z"/><path class="cls-1" d="M3.86,28A3,3,0,0,0,.13,30.13a6.6,6.6,0,0,0,.58,4.19,5.29,5.29,0,0,0,.79,1.16A3.38,3.38,0,0,0,4,36.71a3.14,3.14,0,0,0,2.79-2.15c.55-1.56-.23-3.54-1-4.9A3.57,3.57,0,0,0,3.86,28Z"/></g></g></svg>