<svg xmlns="http://www.w3.org/2000/svg" viewBox="0 0 59.26 99.86"><defs><style>.cls-1{fill:#fff;}</style></defs><g id="Layer_2" data-name="Layer 2"><g id="Layer_1-2" data-name="Layer 1"><path class="cls-1" d="M28.45,23.8A38.19,38.19,0,0,0,19,23.34c-4.7.33-8.39.89-11.21,5.06C5.34,32,5.25,36.78,6.61,40.74c2.71,7.92,14.2,14.82,9.11,24.17-3,5.57-9,8-12.52,13.11A16.33,16.33,0,0,0,.09,89.13C1,96.7,9.72,100.32,16.58,99.82l.41,0A18.46,18.46,0,0,0,27.1,95.42c2.49-2.13,3.11-4.88,3.95-7.85A81.55,81.55,0,0,1,35.11,77c2.75-6.15,6.76-11.61,10-17.49,3-5.46,5.88-10.77,4.83-17.26C48.24,31.76,38.2,25.56,28.45,23.8Z"/><path class="cls-1" d="M14.87,19.89A7.57,7.57,0,0,0,20,16.38a11.28,11.28,0,0,0,1.36-2.82,14.63,14.63,0,0,0,0-9.47A6.72,6.72,0,0,0,12.41.61,8.05,8.05,0,0,0,8.73,4.84C7.37,8.1,6.29,12.74,8,16A7,7,0,0,0,14.87,19.89Z"/><path class="cls-1" d="M30,18.21a4.85,4.85,0,0,0,3.43-2.15,7.46,7.46,0,0,0,1-1.8,9.5,9.5,0,0,0,.21-6.16,4.37,4.37,0,0,0-5.71-2.5,5.21,5.21,0,0,0-2.51,2.66c-1,2.08-1.79,5.08-.77,7.26A4.57,4.57,0,0,0,30,18.21Z"/><path class="cls-1" d="M40.83,23.2a4.53,4.53,0,0,0,3.29-1.76,7,7,0,0,0,1-1.59,8.81,8.81,0,0,0,.59-5.65,4,4,0,0,0-5.09-2.67,4.85,4.85,0,0,0-2.48,2.29c-1,1.85-2,4.55-1.18,6.63A4.24,4.24,0,0,0,40.83,23.2Z"/><path class="cls-1" d="M49.37,30.64a4.12,4.12,0,0,0,3.1-1.33,6.72,6.72,0,0,0,1-1.36,8,8,0,0,0,1-5,3.65,3.65,0,0,0-4.38-2.78A4.37,4.37,0,0,0,47.67,22c-1.06,1.59-2.12,3.95-1.56,5.87A3.82,3.82,0,0,0,49.37,30.64Z"/><path class="cls-1" d="M55.57,30.09a3.63,3.63,0,0,0-2,1.54c-.87,1.31-1.74,3.25-1.28,4.84A3.14,3.14,0,0,0,55,38.76a3.39,3.39,0,0,0,2.56-1.1,5,5,0,0,0,.84-1.12,6.58,6.58,0,0,0,.79-4.16A3,3,0,0,0,55.57,30.09Z"/></g></g></svg>