<svg xmlns="http://www.w3.org/2000/svg" viewBox="0 0 322.53 103.2"><defs><style>.cls-1{fill:#fff;}</style></defs><g id="Layer_2" data-name="Layer 2"><g id="Layer_1-2" data-name="Layer 1"><path class="cls-1" d="M317.31,0H115.06a7.36,7.36,0,0,0-.81.06c-.31,0-.63-.06-1-.06H7.37A6.88,6.88,0,0,0,3,1.89a7.92,7.92,0,0,0-2.79,4A13.12,13.12,0,0,0,0,8.09q0,4.5,7.73,4.49h3.78Q1.25,35.6,1.44,48.18A16.31,16.31,0,0,0,7.55,60.86a21.45,21.45,0,0,0,14.2,4.94q9.18,0,18.7-5.39a62.7,62.7,0,0,0-2.16,14.2,16.41,16.41,0,0,0,2,8.63,7.83,7.83,0,0,0,7,4.14A6.5,6.5,0,0,0,52.5,85a8.4,8.4,0,0,0,2-5.58,46.55,46.55,0,0,0-.62-6.11,43.6,43.6,0,0,1-.63-5.57q0-8.45,4.31-24.27,5.94-22.65,8.81-30.93H80.72Q76.22,28,74.07,35.78,68.67,52.33,68,55.37a67.73,67.73,0,0,0-2.52,18Q65.44,87,72.63,87c4.1,0,6.55-1.5,7.37-4.5q.18-.54,0-15.83a80,80,0,0,1,2-17.08q3.57-10.78,5-16.37,4.85-16.33,6.29-20.66h18l.72,0c.18,0,.35,0,.55,0h46.39c0,1.33-2,2.53-5.94,3.62q-10.25,2.52-20.31,5.06-13.31,4.33-15.46,12.46a12,12,0,0,0,4,13,16.08,16.08,0,0,0,10.52,3.79H135q7.36,0,11.86-.36c3.51-.3,5.29-.48,5.36-.52A3.93,3.93,0,0,1,155,50.88q-.36.9-3.59,2.88-14,8.63-24.45,9.52-1.26-3-5.58-5.84c-2.88-1.86-5.45-2.79-7.73-2.79q-11,0-12.58,6.3a14.35,14.35,0,0,0-.54,3.77q0,11.16,17.26,11.15h2.15q17.26,14.91,25.17,23.78a9.63,9.63,0,0,0,7.2,3.55,5.06,5.06,0,0,0,5.39-4.14,6.44,6.44,0,0,0-1.44-6.47q-6.12-6.3-9.53-9.35a63.59,63.59,0,0,0-9.89-9.53A56.46,56.46,0,0,0,158.75,63.1q8.63-6.47,8.63-12.76a12.39,12.39,0,0,0-3.06-8.27,10.47,10.47,0,0,0-7.91-3.78h-16.9c-.24,0-.63,0-1.17.09a9.45,9.45,0,0,1-1.17.09c-5.15,0-7.55-.59-7.19-1.79q.36-1.08,4.32-2.7,2.32-.9,9-2.88,11.67-3.59,16.54-4.85Q171,22.65,171.51,13.3v-.72H254Q251,21.4,249.54,25.71a15,15,0,0,0-5.22-1.08q-8.08,0-13.3,4.67Q224,21,214.12,21q-12.59,0-23.19,11.32A53,53,0,0,0,178.34,55a44.49,44.49,0,0,0-1.44,11.15q0,8.46,3.42,14,2.16,3.42,7.37,5.58a26.62,26.62,0,0,0,10.25,2.16c2.63,0,4.25-1.15,4.85-3.42a7,7,0,0,0-1.44-6.83q-.72-.72-4.94-1.71t-4.95-1.71c-1.43-1.92-2.15-4.61-2.15-8.09q0-16.19,12-26.43,7.74-6.65,11.87-6.65,4.86,0,8.09,4.5-7.38,5.93-9.35,13.48a17.48,17.48,0,0,0-.54,4.85q0,11.7,5.21,11.69a12.07,12.07,0,0,0,8.28-2.7,24.46,24.46,0,0,0,6.83-12.22,51.62,51.62,0,0,0,1.44-10.61q8.63-5.74,10.78-5.75.18,0,1.62.18l.36.72q-3.78,12.41-5,16.9a67.16,67.16,0,0,0-2,16.71q0,16.19,7.91,16.19,6.47,0,7.55-4.5.36-1.08-.54-15.82a80,80,0,0,1,2.34-21.39q3.24-10.26,4.67-15.47,2.52-8.27,6.11-17.26h17.8q-4.49,15.47-6.65,23.2Q272.73,52.33,272,55.37a67.73,67.73,0,0,0-2.52,18q0,13.66,7.2,13.67,6.13,0,7.36-4.5.18-.54,0-15.83a80,80,0,0,1,2-17.08q3.57-10.78,5-16.37,4.85-16.33,6.29-20.66h18a6.69,6.69,0,0,0,5.05-2.33A7.56,7.56,0,0,0,322.53,5Q322.53,0,317.31,0ZM47.64,35.42a53.44,53.44,0,0,1-2.51,7.91,24.93,24.93,0,0,1-3.42,2.34q-12.22,7.19-19.06,7.19-9,0-9-7.91a33.65,33.65,0,0,1,1.62-8.81,132.61,132.61,0,0,1,9.17-23.56H53.94Q49.44,27.68,47.64,35.42Z"/></g></g></svg>