<svg xmlns="http://www.w3.org/2000/svg" viewBox="0 0 121.37 122.54"><defs><style>.cls-1{fill:#fff;}</style></defs><g id="Layer_2" data-name="Layer 2"><g id="Layer_1-2" data-name="Layer 1"><path class="cls-1" d="M50,96.89c-3-2.89-6.29-5.51-8.11-9.31C37.3,78,49.11,71.67,52.22,63.9c1.56-3.89,1.71-8.71-.52-12.38-2.61-4.31-6.26-5.06-10.94-5.62a38.31,38.31,0,0,0-9.51,0c-9.81,1.27-20.16,7-22.38,17.33-1.38,6.44,1.22,11.88,4,17.49,2.4,4.92,5.31,9.57,7.63,14.52a102.23,102.23,0,0,1,4.88,14.14c1.21,4.07,2.68,7.57,6.24,10.17a16,16,0,0,0,7.72,2.89,20.21,20.21,0,0,0,6.89-.45c3.56-.85,7-2.76,8.86-5.92a11.91,11.91,0,0,0,1.36-7.46C55.81,104,53.3,100.09,50,96.89Z"/><path class="cls-1" d="M40.06,38.89a7.55,7.55,0,0,0,5,3.77,7,7,0,0,0,7.07-3.51c1.86-3.2,1-7.89-.18-11.21a8,8,0,0,0-3.47-4.41,6.7,6.7,0,0,0-9.07,3A14.65,14.65,0,0,0,38.84,36,11.55,11.55,0,0,0,40.06,38.89Z"/><path class="cls-1" d="M26.65,37.9A5,5,0,0,0,30,40.22a4.57,4.57,0,0,0,4.5-2.46c1.13-2.14.46-5.17-.4-7.3a5.24,5.24,0,0,0-2.37-2.78,4.38,4.38,0,0,0-5.83,2.2,9.58,9.58,0,0,0-.1,6.17A7.27,7.27,0,0,0,26.65,37.9Z"/><path class="cls-1" d="M15.72,42.74a4.55,4.55,0,0,0,3.21,1.92,4.22,4.22,0,0,0,4-2.56c.91-2,.09-4.77-.84-6.68A4.78,4.78,0,0,0,19.72,33a4,4,0,0,0-5.22,2.4,8.76,8.76,0,0,0,.3,5.67A7.24,7.24,0,0,0,15.72,42.74Z"/><path class="cls-1" d="M13.42,49.06c.65-1.9-.28-4.3-1.26-6a4.31,4.31,0,0,0-2.31-2,3.64,3.64,0,0,0-4.51,2.55,7.91,7.91,0,0,0,.71,5.08,5.55,5.55,0,0,0,1,1.41,4.09,4.09,0,0,0,3,1.49A3.84,3.84,0,0,0,13.42,49.06Z"/><path class="cls-1" d="M3.86,50.8A3,3,0,0,0,.13,52.9a6.59,6.59,0,0,0,.58,4.19,5.12,5.12,0,0,0,.79,1.17A3.41,3.41,0,0,0,4,59.48a3.13,3.13,0,0,0,2.79-2.14c.55-1.57-.23-3.55-1-4.91A3.55,3.55,0,0,0,3.86,50.8Z"/><path class="cls-1" d="M90.56,23.8a38.19,38.19,0,0,0-9.49-.46c-4.7.33-8.39.89-11.22,5.06-2.4,3.55-2.5,8.38-1.14,12.34,2.72,7.92,14.2,14.82,9.11,24.17-3,5.57-8.94,8-12.51,13.11A16.27,16.27,0,0,0,62.2,89.13c.89,7.57,9.63,11.19,16.48,10.69l.41,0a18.46,18.46,0,0,0,10.12-4.36c2.49-2.13,3.1-4.88,4-7.85A78.76,78.76,0,0,1,97.22,77c2.75-6.15,6.76-11.61,10-17.49,3-5.46,5.87-10.77,4.82-17.26C110.35,31.76,100.3,25.56,90.56,23.8Z"/><path class="cls-1" d="M77,19.89a7.52,7.52,0,0,0,5.14-3.51,11.32,11.32,0,0,0,1.37-2.82,14.63,14.63,0,0,0,0-9.47A6.71,6.71,0,0,0,74.52.61a8,8,0,0,0-3.68,4.23C69.48,8.1,68.4,12.74,70.09,16A7.06,7.06,0,0,0,77,19.89Z"/><path class="cls-1" d="M92.12,18.21a4.87,4.87,0,0,0,3.44-2.15,7.43,7.43,0,0,0,1-1.8,9.57,9.57,0,0,0,.22-6.16A4.38,4.38,0,0,0,91,5.6a5.19,5.19,0,0,0-2.5,2.66c-1,2.08-1.8,5.08-.78,7.26A4.58,4.58,0,0,0,92.12,18.21Z"/><path class="cls-1" d="M102.93,23.2a4.53,4.53,0,0,0,3.3-1.76,6.64,6.64,0,0,0,1-1.59,8.74,8.74,0,0,0,.59-5.65,4,4,0,0,0-5.09-2.67,4.79,4.79,0,0,0-2.47,2.29c-1,1.85-2,4.55-1.18,6.63A4.21,4.21,0,0,0,102.93,23.2Z"/><path class="cls-1" d="M111.47,30.64a4.11,4.11,0,0,0,3.1-1.33,6.37,6.37,0,0,0,1-1.36,7.87,7.87,0,0,0,1-5,3.64,3.64,0,0,0-4.38-2.78,4.4,4.4,0,0,0-2.4,1.87c-1.06,1.59-2.11,3.95-1.55,5.87A3.82,3.82,0,0,0,111.47,30.64Z"/><path class="cls-1" d="M117.68,30.09a3.56,3.56,0,0,0-2,1.54c-.88,1.31-1.75,3.25-1.29,4.84a3.15,3.15,0,0,0,2.69,2.29,3.42,3.42,0,0,0,2.56-1.1,5.38,5.38,0,0,0,.84-1.12,6.58,6.58,0,0,0,.79-4.16A3,3,0,0,0,117.68,30.09Z"/></g></g></svg>