<svg xmlns="http://www.w3.org/2000/svg" viewBox="0 0 458.1 122.54"><defs><style>.cls-1{fill:#fff;}</style></defs><g id="Layer_2" data-name="Layer 2"><g id="Layer_1-2" data-name="Layer 1"><path class="cls-1" d="M50,96.89c-3-2.89-6.29-5.51-8.11-9.31C37.3,78,49.11,71.67,52.22,63.9c1.56-3.89,1.71-8.71-.52-12.38-2.61-4.31-6.26-5.06-10.94-5.62a38.31,38.31,0,0,0-9.51,0c-9.81,1.27-20.16,7-22.38,17.33-1.38,6.44,1.22,11.88,4,17.49,2.4,4.92,5.31,9.57,7.63,14.52a102.23,102.23,0,0,1,4.88,14.14c1.21,4.07,2.68,7.57,6.24,10.17a16,16,0,0,0,7.72,2.89,20.21,20.21,0,0,0,6.89-.45c3.56-.85,7-2.76,8.86-5.92a11.91,11.91,0,0,0,1.36-7.46C55.81,104,53.3,100.09,50,96.89Z"/><path class="cls-1" d="M40.06,38.89a7.55,7.55,0,0,0,5,3.77,7,7,0,0,0,7.07-3.51c1.86-3.2,1-7.89-.18-11.21a8,8,0,0,0-3.47-4.41,6.7,6.7,0,0,0-9.07,3A14.65,14.65,0,0,0,38.84,36,11.55,11.55,0,0,0,40.06,38.89Z"/><path class="cls-1" d="M26.65,37.9A5,5,0,0,0,30,40.22a4.57,4.57,0,0,0,4.5-2.46c1.13-2.14.46-5.17-.4-7.3a5.24,5.24,0,0,0-2.37-2.78,4.38,4.38,0,0,0-5.83,2.2,9.58,9.58,0,0,0-.1,6.17A7.27,7.27,0,0,0,26.65,37.9Z"/><path class="cls-1" d="M15.72,42.74a4.55,4.55,0,0,0,3.21,1.92,4.22,4.22,0,0,0,4-2.56c.91-2,.09-4.77-.84-6.68A4.78,4.78,0,0,0,19.72,33a4,4,0,0,0-5.22,2.4,8.76,8.76,0,0,0,.3,5.67A7.24,7.24,0,0,0,15.72,42.74Z"/><path class="cls-1" d="M13.42,49.06c.65-1.9-.28-4.3-1.26-6a4.31,4.31,0,0,0-2.31-2,3.64,3.64,0,0,0-4.51,2.55,7.91,7.91,0,0,0,.71,5.08,5.55,5.55,0,0,0,1,1.41,4.09,4.09,0,0,0,3,1.49A3.84,3.84,0,0,0,13.42,49.06Z"/><path class="cls-1" d="M3.86,50.8A3,3,0,0,0,.13,52.9a6.59,6.59,0,0,0,.58,4.19,5.12,5.12,0,0,0,.79,1.17A3.41,3.41,0,0,0,4,59.48a3.13,3.13,0,0,0,2.79-2.14c.55-1.57-.23-3.55-1-4.91A3.55,3.55,0,0,0,3.86,50.8Z"/><path class="cls-1" d="M90.56,23.8a38.19,38.19,0,0,0-9.49-.46c-4.7.33-8.39.89-11.22,5.06-2.4,3.55-2.5,8.38-1.14,12.34,2.72,7.92,14.2,14.82,9.11,24.17-3,5.57-8.94,8-12.51,13.11A16.27,16.27,0,0,0,62.2,89.13c.89,7.57,9.63,11.19,16.48,10.69l.41,0a18.46,18.46,0,0,0,10.12-4.36c2.49-2.13,3.1-4.88,4-7.85A78.76,78.76,0,0,1,97.22,77c2.75-6.15,6.76-11.61,10-17.49,3-5.46,5.87-10.77,4.82-17.26C110.35,31.76,100.3,25.56,90.56,23.8Z"/><path class="cls-1" d="M77,19.89a7.52,7.52,0,0,0,5.14-3.51,11.32,11.32,0,0,0,1.37-2.82,14.63,14.63,0,0,0,0-9.47A6.71,6.71,0,0,0,74.52.61a8,8,0,0,0-3.68,4.23C69.48,8.1,68.4,12.74,70.09,16A7.06,7.06,0,0,0,77,19.89Z"/><path class="cls-1" d="M92.12,18.21a4.87,4.87,0,0,0,3.44-2.15,7.43,7.43,0,0,0,1-1.8,9.57,9.57,0,0,0,.22-6.16A4.38,4.38,0,0,0,91,5.6a5.19,5.19,0,0,0-2.5,2.66c-1,2.08-1.8,5.08-.78,7.26A4.58,4.58,0,0,0,92.12,18.21Z"/><path class="cls-1" d="M102.93,23.2a4.53,4.53,0,0,0,3.3-1.76,6.64,6.64,0,0,0,1-1.59,8.74,8.74,0,0,0,.59-5.65,4,4,0,0,0-5.09-2.67,4.79,4.79,0,0,0-2.47,2.29c-1,1.85-2,4.55-1.18,6.63A4.21,4.21,0,0,0,102.93,23.2Z"/><path class="cls-1" d="M111.47,30.64a4.11,4.11,0,0,0,3.1-1.33,6.37,6.37,0,0,0,1-1.36,7.87,7.87,0,0,0,1-5,3.64,3.64,0,0,0-4.38-2.78,4.4,4.4,0,0,0-2.4,1.87c-1.06,1.59-2.11,3.95-1.55,5.87A3.82,3.82,0,0,0,111.47,30.64Z"/><path class="cls-1" d="M117.68,30.09a3.56,3.56,0,0,0-2,1.54c-.88,1.31-1.75,3.25-1.29,4.84a3.15,3.15,0,0,0,2.69,2.29,3.42,3.42,0,0,0,2.56-1.1,5.38,5.38,0,0,0,.84-1.12,6.58,6.58,0,0,0,.79-4.16A3,3,0,0,0,117.68,30.09Z"/><path class="cls-1" d="M452.89,13.12H250.63a5.29,5.29,0,0,0-.8.07,7.82,7.82,0,0,0-1-.07H143A6.93,6.93,0,0,0,138.54,15a7.9,7.9,0,0,0-2.79,4,13,13,0,0,0-.17,2.15q0,4.5,7.73,4.5h3.77q-10.25,23-10.07,35.6A16.27,16.27,0,0,0,143.13,74a21.44,21.44,0,0,0,14.2,5q9.16,0,18.7-5.4a62.78,62.78,0,0,0-2.16,14.2,16.38,16.38,0,0,0,2,8.63,7.81,7.81,0,0,0,7,4.14,6.48,6.48,0,0,0,5.21-2.34,8.31,8.31,0,0,0,2-5.57,45,45,0,0,0-.63-6.11,45.91,45.91,0,0,1-.63-5.58q0-8.45,4.32-24.27Q199,34,201.92,25.71H216.3q-4.5,15.47-6.66,23.19-5.38,16.54-6.11,19.6a67.67,67.67,0,0,0-2.52,18q0,13.67,7.2,13.66,6.14,0,7.37-4.5.18-.54,0-15.82a79.43,79.43,0,0,1,2-17.09q3.56-10.78,5-16.36,4.86-16.35,6.3-20.66h18a5.53,5.53,0,0,0,.71,0c.19,0,.36,0,.56,0H294.5c0,1.32-2,2.53-5.93,3.61q-10.24,2.54-20.32,5.06-13.31,4.34-15.46,12.46a12,12,0,0,0-.54,3.43,11.91,11.91,0,0,0,4.59,9.58,16,16,0,0,0,10.51,3.79h3.24c4.91,0,8.87-.11,11.87-.36,3.5-.3,5.29-.47,5.36-.52A4,4,0,0,1,290.55,64q-.36.9-3.6,2.88-14,8.63-24.45,9.53-1.26-3.06-5.57-5.84t-7.73-2.79q-11,0-12.59,6.29a14.37,14.37,0,0,0-.54,3.78Q236.07,89,253.33,89h2.16q17.25,14.91,25.17,23.78a9.58,9.58,0,0,0,7.19,3.55,5.05,5.05,0,0,0,5.39-4.13,6.48,6.48,0,0,0-1.43-6.48q-6.12-6.28-9.53-9.35a64.05,64.05,0,0,0-9.89-9.52,56.63,56.63,0,0,0,21.93-10.61Q303,69.75,303,63.46a12.45,12.45,0,0,0-3.05-8.27A10.47,10.47,0,0,0,292,51.42H275.08c-.24,0-.62,0-1.16.09s-.93.09-1.17.09c-5.16,0-7.55-.6-7.19-1.8.24-.72,1.67-1.62,4.31-2.7,1.56-.6,4.55-1.55,9-2.87q11.68-3.6,16.54-4.86,11.14-3.59,11.69-12.94v-.72h82.52q-3.06,8.81-4.5,13.12a15,15,0,0,0-5.21-1.08q-8.1,0-13.31,4.68-7-8.26-16.9-8.27-12.58,0-23.19,11.33a53,53,0,0,0-12.58,22.65,44.35,44.35,0,0,0-1.44,11.14q0,8.46,3.41,14,2.16,3.42,7.37,5.57A26.7,26.7,0,0,0,333.51,101q4,0,4.86-3.42a7,7,0,0,0-1.44-6.83q-.72-.72-4.94-1.71T327,87.37q-2.16-2.87-2.16-8.09,0-16.17,12.05-26.42,7.72-6.66,11.86-6.66,4.86,0,8.1,4.5-7.38,5.92-9.35,13.48A17.51,17.51,0,0,0,347,69q0,11.68,5.21,11.68A12.1,12.1,0,0,0,360.48,78a24.42,24.42,0,0,0,6.83-12.23,50.2,50.2,0,0,0,1.44-10.61q8.63-5.74,10.79-5.75c.12,0,.65.06,1.62.18l.35.72q-3.76,12.4-5,16.9a67.24,67.24,0,0,0-2,16.72q0,16.19,7.91,16.18c4.32,0,6.83-1.5,7.56-4.49q.34-1.08-.54-15.83a79.92,79.92,0,0,1,2.33-21.39Q395,48.19,396.44,43q2.51-8.26,6.11-17.26h17.8q-4.5,15.47-6.65,23.19-5.4,16.54-6.12,19.6a68.06,68.06,0,0,0-2.51,18q0,13.67,7.19,13.66,6.14,0,7.37-4.5.18-.54,0-15.82a79.43,79.43,0,0,1,2-17.09q3.57-10.78,5-16.36,4.86-16.35,6.3-20.66h18a6.66,6.66,0,0,0,5-2.34,7.47,7.47,0,0,0,2.16-5.21Q458.1,13.12,452.89,13.12ZM183.22,48.54a51,51,0,0,1-2.52,7.91,25.5,25.5,0,0,1-3.41,2.34Q165.05,66,158.23,66q-9,0-9-7.91a33.72,33.72,0,0,1,1.62-8.81A131.78,131.78,0,0,1,160,25.71h29.48Q185,40.82,183.22,48.54Z"/></g></g></svg>